<svg width="218" height="295" viewBox="0 0 218 295" fill="none" xmlns="http://www.w3.org/2000/svg">
<path d="M218 149C218 284 218 295 198 295C178 295 178 295 178 149C178 2.99997 178 -5 198 2.99997C209.046 2.99997 218 2.99997 218 149Z" fill="#99afc9"/>
<path d="M178 149C178 284 178 265 158 265C138 265 0.5 295 0.5 149C0.5 2.99997 146.954 33 158 33C169.046 33 178 2.99997 178 149Z" fill="#99afc9"/>
<path d="M178 15.5C178 22.4036 178 28 109.5 28C41 28 41 22.4036 41 15.5C41 8.59644 41 3 109.5 3C178 3 178 8.59644 178 15.5Z" fill="#99afc9"/>
<path d="M178 282.5C178 289.404 178 295 109.5 295C41 295 41 289.404 41 282.5C41 275.596 41 270 109.5 270C178 270 178 275.596 178 282.5Z" fill="#99afc9"/>
</svg>
